# xmcd
#
# Track frame offsets:
#	150
#	15007
#	31355
#	42197
#	56337
#	68710
#	81627
#	95507
#	109080
#	121797
#	135840
#	147085
#	159667
#	170530
#	179875
#	188750
#	199377
#	212545
#	223625
#
# Disc length: 3241 seconds
#
# Revision: 1
# Processed by: cddbd v1.5.2PL0 Copyright (c) Steve Scherf et al.
# Submitted via: audiograbber 1.83.01
#
DISCID=080ca713
DTITLE=Various Artist - A Liitle Bit Country, A Little Bit Rock 'n' Roll (Read
DTITLE=er's Digest) [Disc 4]
DYEAR=2001
DGENRE=Country
TTITLE0=Eric Weiss and His Banjos - Duelling Banjos
TTITLE1=The Nitty Gritty Dirt Band - Mr. Bojangles
TTITLE2=Judy Stone - Would You Lay With Me (In A Field Of Stone)
TTITLE3=Jim Stafford - Spiders And Snakes
TTITLE4=Freddy Fender - Wasted Days And Wasted Nights
TTITLE5=Bluestone - Wind And Rain
TTITLE6=Olivia Newton-John - Let Me Be There
TTITLE7=Billy Swan - I Can Help
TTITLE8=Glen Campbell - Bonaparte's Retreat
TTITLE9=Dr. Hook - Walk Right In
TTITLE10=Sheb Wooley - Hootenanny Hoot
TTITLE11=Conway Twitty - Danny Boy
TTITLE12=Bill and Boyd - Put Another Log On The Fire
TTITLE13=Roger Miller - Chug-A-Lug
TTITLE14=Duane Eddy - Ballad Of Paladin
TTITLE15=Jerry Reed - When You're Hot, You're Hot
TTITLE16=Leroy Van Dyke - Auctioneer
TTITLE17=Jimmy Dean - The Little Black Book
TTITLE18=Mac Davis - It's Hard To Be Humble
EXTD=Readers Digest Music
EXTT0=
EXTT1=
EXTT2=
EXTT3=
EXTT4=
EXTT5=
EXTT6=
EXTT7=
EXTT8=
EXTT9=
EXTT10=
EXTT11=
EXTT12=
EXTT13=
EXTT14=
EXTT15=
EXTT16=
EXTT17=
EXTT18=
PLAYORDER=
